<svg class="image-logo" xmlns="http://www.w3.org/2000/svg" width="153" height="36" viewBox="0 0 153 36">
    <g fill="none" fill-rule="nonzero">
        <path fill="#AC221D" d="M20.788 20.939c0-.186-.239-.305-.239-.305l-2.32-1.326c-.611.358-12.494 7.228-13.555 7.758a1.552 1.552 0 0 1-.61.08.584.584 0 0 1-.451-.186c-.17-.21-.26-.473-.252-.742V1.39c-.845.43-1.664.908-2.454 1.432A2.374 2.374 0 0 0 .085 4.68v26.75c-.03.306.06.61.252.85a.65.65 0 0 0 .477.172c.324-.026.637-.126.915-.292.186-.106 18.356-10.424 18.86-10.862a.438.438 0 0 0 .199-.358z"/>
        <path fill="#AC221D" d="M28.666 19.507C28.493 19.414 11.53 9.48 10.907 9.255a.676.676 0 0 0-.252 0 .318.318 0 0 0-.239.092.584.584 0 0 0-.106.372v2.652c.61.358 12.48 7.228 13.502 7.839.41.238.61.504.61.782 0 .279-.57.783-.61.796L2.3 34.122c.318.186 1.658.955 2.533 1.326.237.107.495.162.756.16a2.36 2.36 0 0 0 1.18-.345l21.87-12.626c.862-.491 1.327-1.022 1.327-1.565-.04-.889-1.287-1.565-1.3-1.565z"/>
        <path fill="#B6231D" d="M5.284 23.618c0 .305.106.438.292.438a.968.968 0 0 0 .41-.133l2.348-1.207V7.146a1.326 1.326 0 0 1 .279-.968.61.61 0 0 1 .45-.173c.254.016.5.094.717.226l20.08 11.631c0-.318 0-1.525-.067-2.507a2.294 2.294 0 0 0-1.326-2.122C28.28 13.101 8.679 1.867 6.942.9a1.897 1.897 0 0 0-.876-.278.637.637 0 0 0-.49.199 1.485 1.485 0 0 0-.292.941v21.857z"/>
        <path fill="#4D4D4F" d="M80.244 12.809c-3.143 0-4.735 1.804-4.735 5.305v4.894c0 3.024 1.724 4.828 4.602 4.828a4.337 4.337 0 0 0 4.855-4.483v-.716l-2.799.53c0 2.135-1.207 2.44-1.91 2.44-1.26.027-1.923-.795-1.923-2.44v-2.414h6.632v-2.652a5.584 5.584 0 0 0-.677-3.303 4.483 4.483 0 0 0-4.045-1.989zm1.857 5.637v.212h-3.767v-1.101c0-1.605.637-2.427 1.884-2.427.848 0 1.856.424 1.856 2.427l.027.889zM147.3 16.642a3.753 3.753 0 0 0-4.085-3.979c-3.09 0-5 1.711-5.106 4.576v.424l2.732-.464c.199-1.446.849-2.175 1.936-2.175 1.088 0 1.592.716 1.592 2.135v.716h-.12l-1.18.544a17.6 17.6 0 0 0-2.759 1.525 5.305 5.305 0 0 0-2.533 4.55 3.05 3.05 0 0 0 3.143 3.355 3.488 3.488 0 0 0 3.144-1.552l.331-.411v.53l.093 1.194h2.97a12.838 12.838 0 0 1-.225-2.175l.067-8.793zm-2.945 3.766v3.82c-.954 1.048-1.326 1.326-2.161 1.326-.836 0-1.526-.557-1.526-1.551 0-1.42.982-2.547 3.303-3.767l.305-.16.08.332zM43.706 8.021h-4.59V27.65h4.59a5.305 5.305 0 0 0 4.124-1.406 6.459 6.459 0 0 0 1.406-4.403v-8.024a6.34 6.34 0 0 0-1.485-4.416 5.199 5.199 0 0 0-4.045-1.38zm2.36 14.072c0 2.268-.69 2.984-2.851 2.984h-.889V10.554h.889c2.109 0 2.851.796 2.851 3.038v8.501zM55.005 7.809h-2.851V10.581h2.851V9.294zM55.005 13.021h-2.851V27.65h2.851V17.066zM70.536 12.809a4.589 4.589 0 0 0-3.33 1.618l-.172.16-.132-.2c-.915-1.326-1.326-1.578-2.36-1.578a4.496 4.496 0 0 0-3.17 1.552l-.345.305V13.02h-2.852v14.59h2.918V16.163h.08a3.382 3.382 0 0 1 1.989-.875c.41 0 1.127.186 1.127 1.499v10.928h2.865V16.164h.08a3.462 3.462 0 0 1 1.896-.954c.53 0 1.154.265 1.154 1.525v10.928h2.865v-11.79c-.014-1.393-.465-3.064-2.613-3.064zM93.838 12.809a4.39 4.39 0 0 0-3.077 1.446l-.345.305V13.02h-2.864v14.59h2.851V16.15h.093a3.66 3.66 0 0 1 1.95-.941c.73 0 1.18.57 1.18 1.498v10.929h2.825V15.873c.013-1.99-.875-3.064-2.613-3.064zM103.692 18.897c-1.604-1.18-2.135-1.711-2.135-2.467 0-.733.594-1.327 1.326-1.327.876 0 1.486.637 1.738 1.79l2.493-.225c-.49-2.56-1.936-3.846-4.284-3.846a3.886 3.886 0 0 0-4.045 3.714c0 1.764.955 3.05 3.634 4.894 1.592 1.127 2.082 1.724 2.082 2.56a1.432 1.432 0 0 1-1.512 1.458c-1.22 0-1.63-.597-2.042-2.254l-2.467.636c.544 2.759 2.016 3.979 4.642 3.979a3.979 3.979 0 0 0 4.191-3.979c-.013-1.79-.716-2.772-3.62-4.933zM112.525 13.021h-2.865V27.65h2.865V15.21zM109.66 7.809V10.581h2.865V7.809zM119.687 12.77c-2.97 0-4.748 1.949-4.748 5.211v4.709c0 3.276 1.764 5.305 4.721 5.305 2.958 0 4.748-1.963 4.748-5.305V17.98c0-3.275-1.763-5.212-4.721-5.212zm1.777 10.291c0 1.658-.61 2.493-1.804 2.493-.809 0-1.777-.437-1.777-2.493v-5.45c0-1.632.61-2.468 1.83-2.468 1.22 0 1.751.836 1.751 2.467v5.451zM132.857 12.809a4.39 4.39 0 0 0-3.077 1.446l-.345.305V13.02h-2.865v14.59h2.865V16.15h.093a3.66 3.66 0 0 1 1.95-.941c.729 0 1.18.57 1.18 1.498v10.929h2.825V15.873c0-1.99-.876-3.064-2.626-3.064zM150.204 27.65h2.64V8.02h-2.64v14.841z"/>
    </g>
</svg>
