<svg xmlns="http://www.w3.org/2000/svg" height="50" width="145" viewBox="0 0 115.18 26.4"><style>*{fill: #fff;}</style><path d="M15.61,15.32c0-.14-.18-.23-.18-.23l-1.75-1c-.46.27-9.42,5.45-10.22,5.85A1.17,1.17,0,0,1,3,20a.44.44,0,0,1-.34-.14.85.85,0,0,1-.19-.56V.58A18.62,18.62,0,0,0,.62,1.66,1.79,1.79,0,0,0,0,3.06c0,.18,0,18.68,0,20.17a.89.89,0,0,0,.19.64A.49.49,0,0,0,.55,24a1.6,1.6,0,0,0,.69-.22c.14-.08,13.84-7.86,14.22-8.19A.33.33,0,0,0,15.61,15.32Z"/><path d="M21.55,14.24c-.13-.07-12.92-7.56-13.39-7.73a.51.51,0,0,0-.19,0,.24.24,0,0,0-.18.07.44.44,0,0,0-.08.28v2c.46.27,9.41,5.45,10.18,5.91.31.18.46.38.46.59s-.43.59-.46.6L1.67,25.26c.24.14,1.25.72,1.91,1a1.36,1.36,0,0,0,.57.12,1.78,1.78,0,0,0,.89-.26l16.49-9.52c.65-.37,1-.77,1-1.18C22.5,14.75,21.56,14.24,21.55,14.24Z"/><path d="M3.92,17.34c0,.23.08.33.22.33a.73.73,0,0,0,.31-.1l1.77-.91s0-10.72,0-11.74a1,1,0,0,1,.21-.73.46.46,0,0,1,.34-.13,1.18,1.18,0,0,1,.54.17L22.45,13c0-.24,0-1.15-.05-1.89a1.73,1.73,0,0,0-1-1.6C21.26,9.41,6.48.94,5.17.21A1.43,1.43,0,0,0,4.51,0a.48.48,0,0,0-.37.15,1.12,1.12,0,0,0-.22.71Z"/><path d="M60.44,9.19c-2.37,0-3.57,1.36-3.57,4v3.69c0,2.28,1.3,3.64,3.47,3.64A3.27,3.27,0,0,0,64,17.14v-.54L61.89,17c0,1.61-.91,1.84-1.44,1.84C59.5,18.86,59,18.24,59,17V15.18h5v-2a4.21,4.21,0,0,0-.51-2.49A3.38,3.38,0,0,0,60.44,9.19Zm1.4,4.25v.16H59v-.83c0-1.21.48-1.83,1.42-1.83.64,0,1.4.32,1.4,1.83Z"/><path d="M111,12.08a2.83,2.83,0,0,0-3.08-3c-2.33,0-3.77,1.29-3.85,3.45v0h0v.32l2.06-.35c.15-1.09.64-1.64,1.46-1.64s1.2.54,1.2,1.61v.54l-.09,0-.89.41a13.27,13.27,0,0,0-2.08,1.15A4,4,0,0,0,103.82,18a2.3,2.3,0,0,0,2.37,2.53,2.63,2.63,0,0,0,2.37-1.17l.25-.31,0,.4.07.9h2.24a9.68,9.68,0,0,1-.17-1.64Zm-2.22,2.84v2.88l0,0c-.72.79-1,1-1.63,1S106,18.38,106,17.63c0-1.07.74-1.92,2.49-2.84l.23-.12Z"/><path d="M32.89,5.58H29.43v14.8h3.46A4,4,0,0,0,36,19.32,4.87,4.87,0,0,0,37.06,16V9.95a4.78,4.78,0,0,0-1.12-3.33A3.92,3.92,0,0,0,32.89,5.58Zm1.78,10.61c0,1.71-.52,2.25-2.15,2.25h-.67V7.49h.67c1.59,0,2.15.6,2.15,2.29v6.4Z"/><polygon points="41.41 5.42 39.26 5.42 39.26 5.94 39.26 6.49 39.26 7.51 41.41 7.51 41.41 6.99 41.41 6.54 41.41 5.42"/><polygon points="41.41 9.35 39.26 9.35 39.26 12.48 39.26 17.21 39.26 20.38 41.41 20.38 41.41 17.21 41.41 12.4 41.41 9.35"/><path d="M53.12,9.19a3.46,3.46,0,0,0-2.51,1.22l-.13.12-.1-.15c-.69-1-1-1.19-1.78-1.19a3.39,3.39,0,0,0-2.39,1.17l-.26.23V9.35H43.8v11H46V11.72l.06,0a2.55,2.55,0,0,1,1.5-.66c.31,0,.85.14.85,1.13v8.24h2.16V11.72l.06,0A2.61,2.61,0,0,1,52.06,11c.4,0,.87.2.87,1.15v8.24h2.16V11.5C55.08,10.45,54.74,9.19,53.12,9.19Z"/><path d="M70.69,9.19a3.31,3.31,0,0,0-2.32,1.09l-.26.23V9.35H65.95v11H68.1V11.71l.07,0A2.76,2.76,0,0,1,69.64,11c.55,0,.89.43.89,1.13v8.24h2.13V11.5C72.67,10,72,9.19,70.69,9.19Z"/><path d="M78.12,13.78c-1.21-.89-1.61-1.29-1.61-1.86a1,1,0,0,1,1-1c.66,0,1.12.48,1.31,1.35l1.88-.17c-.37-1.93-1.46-2.9-3.23-2.9A2.93,2.93,0,0,0,74.42,12c0,1.33.72,2.3,2.74,3.69,1.2.85,1.57,1.3,1.57,1.93a1.08,1.08,0,0,1-1.14,1.1c-.92,0-1.23-.45-1.54-1.7l-1.86.48c.41,2.08,1.52,3,3.5,3a3,3,0,0,0,3.16-3C80.84,16.15,80.31,15.41,78.12,13.78Z"/><polygon points="84.78 9.35 82.62 9.35 82.62 11.17 82.62 16.86 82.62 20.38 84.78 20.38 84.78 16.86 84.78 11 84.78 9.35"/><polygon points="84.78 5.42 82.62 5.42 82.62 6 82.62 6.66 82.62 7.51 84.78 7.51 84.78 7.1 84.78 6.27 84.78 5.42"/><path d="M90.18,9.16c-2.24,0-3.58,1.47-3.58,3.93v3.55c0,2.47,1.33,4,3.56,4s3.58-1.48,3.58-4V13.09C93.74,10.62,92.41,9.16,90.18,9.16Zm1.34,7.76c0,1.25-.46,1.88-1.36,1.88-.61,0-1.34-.33-1.34-1.88V12.81c0-1.23.46-1.86,1.38-1.86s1.32.63,1.32,1.86Z"/><path d="M100.11,9.19a3.31,3.31,0,0,0-2.32,1.09l-.26.23V9.35H95.37v11h2.16V11.71l.07,0A2.76,2.76,0,0,1,99.07,11c.55,0,.89.43.89,1.13v8.24h2.13V11.5C102.09,10,101.43,9.19,100.11,9.19Z"/><polygon points="113.19 20.38 115.18 20.38 115.18 17.04 115.18 9.25 115.18 5.58 113.19 5.58 113.19 9.42 113.19 16.77 113.19 20.38"/></svg>